<svg xmlns="http://www.w3.org/2000/svg" viewBox="0 0 512 512">
  <defs>
    <linearGradient id="g" x1="0" y1="0" x2="64" y2="74" gradientUnits="userSpaceOnUse">
      <stop offset="0" stop-color="#FFE873"/><stop offset=".38" stop-color="#FFD600"/><stop offset=".72" stop-color="#C9A100"/><stop offset="1" stop-color="#8A6B00"/>
    </linearGradient>
  </defs>
  <rect width="512" height="512" rx="112" fill="#0B0E14"/>
  <!-- Placa 4:5 con marco cian -->
  <rect x="146" y="118" width="220" height="276" rx="22" fill="#121721" stroke="#38BDF8" stroke-width="10"/>
  <!-- Marcas de corte (canvas) -->
  <g stroke="#38BDF8" stroke-width="10" stroke-linecap="round" fill="none" opacity=".55">
    <path d="M112 150v-40h40M400 150v-40h-40M112 362v40h40M400 362v40h-40"/>
  </g>
  <!-- Escudo Coach JP -->
  <g transform="translate(212 150) scale(1.375)">
    <path d="M32 2 L60 12 L60 36 C60 54 47 66 32 72 C17 66 4 54 4 36 L4 12 Z" fill="url(#g)" stroke="#FFF0A8" stroke-width="1.6"/>
    <path d="M36 18 L21 40 L30 40 L27 58 L43 34 L33 34 Z" fill="#07080A"/>
  </g>
  <!-- Titular: blanco + remate naranja -->
  <rect x="180" y="296" width="152" height="18" rx="4" fill="#FFFFFF"/>
  <rect x="180" y="330" width="104" height="18" rx="4" fill="#EA580C"/>
</svg>
